<?xml version="1.0" encoding="UTF-8" standalone="no"?>
<svg
   version="1.0"
   width="53.591576"
   height="34.10487"
   id="svg2"
   xmlns="http://www.w3.org/2000/svg"
   xmlns:svg="http://www.w3.org/2000/svg"
   xmlns:rdf="http://www.w3.org/1999/02/22-rdf-syntax-ns#"
   xmlns:cc="http://creativecommons.org/ns#"
   xmlns:dc="http://purl.org/dc/elements/1.1/">
  <metadata
     id="metadataHiragana">
    <rdf:RDF>
      <cc:Work
         rdf:about="">
        <dc:format>image/svg+xml</dc:format>
        <dc:type
           rdf:resource="http://purl.org/dc/dcmitype/StillImage" />
      </cc:Work>
    </rdf:RDF>
  </metadata>
  <!-- arrow ends -->
  <defs
     id="defsHiragana">
    <marker
       refX="0"
       refY="0"
       orient="auto"
       style="overflow:visible"
       id="Arrow1Mend">
      <path
         d="M 0,0 5,-5 -12.5,0 5,5 Z"
         transform="matrix(-0.4,0,0,-0.4,-4,0)"
         class="arrow"
         id="path3362"
         style="stroke:#0000ff" />
    </marker>
  </defs>
  <style
     type="text/css"
     id="style1">
		path.stroke /* arrow lines */
		{
			fill: none; fill-opacity: 0.75; fill-rule: evenodd;
			stroke: blue; stroke-width: 1px; stroke-linecap: butt; stroke-linejoin: miter; stroke-opacity:1;
			marker-end: url(#Arrow1Mend);
		}
		path.arrow /* heads */
		{
			font-size: 12px;
			fill-rule: evenodd;
			fill: blue;
			stroke: blue; stroke-width: 1pt;/*0.625*/ stroke-linejoin: round;
			marker-start: none;
		}
		text.number
		{
			font-size: 8px;
			fill: blue;
		}
		text.label
		{
			font-size: 22px;
		}
		text.cell
		{
			font-style: italic;
			text-transform: lowercase;
			fill: gray;
/*			display: none;*/
		}
		path.old
		{
			fill: gray;
		}
		path.rule
		{
			fill: none; fill-opacity: 0.75; fill-rule: evenodd;
			stroke: black; stroke-width: 1px; stroke-linecap: butt; stroke-linejoin: miter; stroke-opacity: 0.1;
		}
		path.rule[id*=&quot;V&quot;]
		{
			stroke-opacity: 0;
		}
		path#ruleH1, path#ruleV12
		{
			stroke-opacity: 0.8;
		}
		defs marker
		{
			overflow: visible;
		}
	</style>
  <!-- table rules -->
  <!-- glyphs -->
  <!-- -A -->
  <!-- -I -->
  <g
     id="gI"
     transform="translate(-660.62231,-143.53852)">
    <path
       d="m 672.26727,145.11094 c -0.53126,0.0313 -0.78127,0.25004 -0.75,0.65625 0.24999,0.43754 0.18748,2.28128 -0.1875,5.5 -0.37501,3.21877 -0.50002,6.40627 -0.375,9.5625 0.15624,3.15626 0.56248,6.06251 1.1875,8.71875 0.65624,2.65626 1.59372,4.71875 2.8125,6.1875 1.24999,1.4375 2.59372,2.0625 4.03125,1.875 1.43749,-0.21875 2.59372,-1.21874 3.5,-2.96875 0.90623,-1.74999 2.03122,-4.15625 3.375,-7.21875 -1.25002,-0.93749 -2.56253,-1.93749 -3.9375,-3.03125 h -0.375 c -0.75002,3.37501 -1.34378,5.43751 -1.78125,6.1875 -0.43752,0.71876 -0.96878,1.00001 -1.59375,0.875 -0.62502,-0.12499 -1.18753,-0.87499 -1.6875,-2.25 -0.50001,-1.37498 -0.87503,-3.99999 -1.15625,-7.90625 -0.28126,-3.93748 -2e-5,-8.59373 0.875,-13.9375 l 0.5625,-0.65625 c 0.37498,-0.37496 0.34372,-0.62497 -0.0937,-0.78125 z m 28.28125,2.59375 -3.625,2.75 c 2.65621,2.65628 4.56245,5.37502 5.71875,8.125 1.18746,2.71877 2.1562,6.43751 2.90625,11.15625 1.68745,-0.71874 3.34369,-1.18749 4.9375,-1.40625 l 0.21875,-0.34375 c -0.93755,-4.24999 -2.18756,-7.96873 -3.75,-11.1875 -1.53129,-3.21873 -3.65631,-6.24997 -6.40625,-9.09375 z"
       id="path2189" />
    <path
       d="m 666.10213,143.64623 c -0.9157,4.15104 0.50571,12.93084 1.05799,17.19428"
       class="stroke"
       id="path41061" />
    <text
       x="659.53638"
       y="149.65234"
       class="number"
       id="text46"
       style="line-height:0%">1</text>
    <path
       d="m 705.46638,146.67291 7.96637,13.27728"
       class="stroke"
       id="path41952" />
    <text
       x="709.53638"
       y="149.65234"
       class="number"
       id="text47"
       style="line-height:0%">2</text>
  </g>
  <!-- -U -->
  <!-- -E -->
  <!-- -O -->
  <!-- column headers -->
  <!-- row headers -->
</svg>
