<?xml version="1.0" encoding="UTF-8" standalone="no"?>
<svg
   version="1.0"
   width="33.840931"
   height="53.500038"
   id="svg2"
   xmlns="http://www.w3.org/2000/svg"
   xmlns:svg="http://www.w3.org/2000/svg"
   xmlns:rdf="http://www.w3.org/1999/02/22-rdf-syntax-ns#"
   xmlns:cc="http://creativecommons.org/ns#"
   xmlns:dc="http://purl.org/dc/elements/1.1/">
  <metadata
     id="metadataHiragana">
    <rdf:RDF>
      <cc:Work
         rdf:about="">
        <dc:format>image/svg+xml</dc:format>
        <dc:type
           rdf:resource="http://purl.org/dc/dcmitype/StillImage" />
      </cc:Work>
    </rdf:RDF>
  </metadata>
  <!-- arrow ends -->
  <defs
     id="defsHiragana">
    <marker
       refX="0"
       refY="0"
       orient="auto"
       style="overflow:visible"
       id="Arrow1Mend">
      <path
         d="M 0,0 5,-5 -12.5,0 5,5 Z"
         transform="matrix(-0.4,0,0,-0.4,-4,0)"
         class="arrow"
         id="path3362"
         style="stroke:#0000ff" />
    </marker>
  </defs>
  <style
     type="text/css"
     id="style1">
		path.stroke /* arrow lines */
		{
			fill: none; fill-opacity: 0.75; fill-rule: evenodd;
			stroke: blue; stroke-width: 1px; stroke-linecap: butt; stroke-linejoin: miter; stroke-opacity:1;
			marker-end: url(#Arrow1Mend);
		}
		path.arrow /* heads */
		{
			font-size: 12px;
			fill-rule: evenodd;
			fill: blue;
			stroke: blue; stroke-width: 1pt;/*0.625*/ stroke-linejoin: round;
			marker-start: none;
		}
		text.number
		{
			font-size: 8px;
			fill: blue;
		}
		text.label
		{
			font-size: 22px;
		}
		text.cell
		{
			font-style: italic;
			text-transform: lowercase;
			fill: gray;
/*			display: none;*/
		}
		path.old
		{
			fill: gray;
		}
		path.rule
		{
			fill: none; fill-opacity: 0.75; fill-rule: evenodd;
			stroke: black; stroke-width: 1px; stroke-linecap: butt; stroke-linejoin: miter; stroke-opacity: 0.1;
		}
		path.rule[id*=&quot;V&quot;]
		{
			stroke-opacity: 0;
		}
		path#ruleH1, path#ruleV12
		{
			stroke-opacity: 0.8;
		}
		defs marker
		{
			overflow: visible;
		}
	</style>
  <!-- table rules -->
  <!-- glyphs -->
  <!-- -A -->
  <!-- -I -->
  <!-- -U -->
  <g
     id="gU"
     transform="translate(-670.36348,-209.26753)">
    <path
       d="m 682.72302,219.83007 -1.3125,4.125 c 5.06248,1.43753 10.81246,2.56253 17.21875,3.34375 0.24997,-1.62497 0.49995,-2.93747 0.78125,-3.9375 l -0.1875,-0.375 c -5.62503,-0.34371 -11.12504,-1.40622 -16.5,-3.15625 z m 8,12.34375 c -1.40625,0.0547 -2.7969,0.21876 -4.15625,0.5 -2.68752,0.53128 -6.28128,1.43752 -10.8125,2.71875 l -0.15625,0.46875 c 0.87499,1.34378 1.59372,2.81252 2.125,4.375 4.03124,-1.99998 7.15622,-3.24998 9.40625,-3.75 2.28122,-0.49998 4.49996,-0.59373 6.625,-0.28125 2.15622,0.31252 3.62496,1.03127 4.4375,2.1875 0.81246,1.15626 1.31245,2.40627 1.46875,3.71875 0.18747,1.31251 -0.0625,3.03126 -0.71875,5.15625 -0.62504,2.12501 -1.62505,3.87501 -3.03125,5.28125 -1.37503,1.40626 -3.21879,2.59376 -5.53125,3.5625 -2.28127,0.96876 -4.59378,1.625 -6.90625,1.9375 v 0.46875 c 0.87498,1.15625 1.56247,2.56249 2.0625,4.25 3.31247,-1.06251 5.99996,-2.125 8.0625,-3.21875 2.09372,-1.0625 4.12495,-2.65625 6.0625,-4.78125 1.93747,-2.12499 3.2187,-4.46875 3.84375,-7 0.65621,-2.56249 0.8437,-4.78123 0.59375,-6.65625 -0.25004,-1.90623 -1.09381,-3.74998 -2.5625,-5.53125 -1.43753,-1.81248 -3.62504,-2.87497 -6.53125,-3.21875 -1.45314,-0.17186 -2.875,-0.24219 -4.28125,-0.1875 z"
       id="path2185" />
    <path
       d="m 682.63443,216.88592 17.07106,3.53913"
       class="stroke"
       id="path5912" />
    <text
       x="683.76062"
       y="215.10347"
       class="number"
       id="text64"
       style="line-height:0%">1</text>
    <path
       d="m 670.49446,232.9875 14.57287,-3.95549"
       class="stroke"
       id="path6835" />
    <text
       x="670.37482"
       y="229.38266"
       class="number"
       id="text65"
       style="line-height:0%">2</text>
  </g>
  <!-- -E -->
  <!-- -O -->
  <!-- column headers -->
  <!-- row headers -->
</svg>
