<?xml version="1.0" encoding="UTF-8" standalone="no"?>
<svg
   version="1.0"
   width="39.80127"
   height="41.215153"
   id="svg2"
   sodipodi:version="0.32"
   inkscape:version="0.48.0 r9654"
   sodipodi:docname="Table_katakana-ru.svg"
   inkscape:export-batch-name=""
   xmlns:inkscape="http://www.inkscape.org/namespaces/inkscape"
   xmlns:sodipodi="http://sodipodi.sourceforge.net/DTD/sodipodi-0.dtd"
   xmlns="http://www.w3.org/2000/svg"
   xmlns:svg="http://www.w3.org/2000/svg"
   xmlns:rdf="http://www.w3.org/1999/02/22-rdf-syntax-ns#"
   xmlns:cc="http://creativecommons.org/ns#"
   xmlns:dc="http://purl.org/dc/elements/1.1/">
  <metadata
     id="metadataKatakana">
    <rdf:RDF>
      <cc:Work
         rdf:about="">
        <dc:format>image/svg+xml</dc:format>
        <dc:type
           rdf:resource="http://purl.org/dc/dcmitype/StillImage" />
      </cc:Work>
    </rdf:RDF>
  </metadata>
  <sodipodi:namedview
     inkscape:window-height="1031"
     inkscape:window-width="1920"
     inkscape:pageshadow="2"
     inkscape:pageopacity="0.0"
     guidetolerance="10.0"
     gridtolerance="10.0"
     objecttolerance="10.0"
     borderopacity="1.0"
     bordercolor="#666666"
     pagecolor="#ffffff"
     id="base"
     inkscape:zoom="1.2008624"
     inkscape:cx="341.14809"
     inkscape:cy="169.85181"
     inkscape:window-x="0"
     inkscape:window-y="0"
     inkscape:current-layer="svg2"
     showguides="true"
     inkscape:guide-bbox="true"
     showgrid="false"
     inkscape:window-maximized="1"
     inkscape:showpageshadow="2"
     inkscape:pagecheckerboard="0"
     inkscape:deskcolor="#d1d1d1">
    <inkscape:page
       x="0"
       y="0"
       width="39.80127"
       height="41.215153"
       id="page1"
       margin="0"
       bleed="0" />
  </sodipodi:namedview>
  <!-- arrow ends -->
  <defs
     id="defsKatakana">
    <marker
       refX="0"
       refY="0"
       orient="auto"
       style="overflow:visible"
       id="Arrow1Mend">
      <path
         d="M 0,0 5,-5 -12.5,0 5,5 Z"
         transform="matrix(-0.4,0,0,-0.4,-4,0)"
         class="arrow"
         id="path3362"
         style="stroke:#0000ff" />
    </marker>
  </defs>
  <style
     type="text/css"
     id="style3544">
		path.stroke /* arrow lines */
		{
			fill: none; fill-opacity: 0.75; fill-rule: evenodd;
			stroke: blue; stroke-width: 1px; stroke-linecap: butt; stroke-linejoin: miter; stroke-opacity:1;
			marker-end: url(#Arrow1Mend);
		}
		path.arrow /* heads */
		{
			font-size: 12px;
			fill-rule: evenodd;
			fill: blue;
			stroke: blue; stroke-width: 1pt;/*0.625*/ stroke-linejoin: round;
			marker-start: none;
		}
		text.number
		{
			font-size: 8px;
			fill: blue;
		}
		text.label
		{
			font-size: 22px;
		}
		text.cell
		{
			font-style: italic;
			text-transform: lowercase;
			fill: gray;
/*			display: none;*/
		}
		path.old
		{
			fill: gray;
		}
		path.rule
		{
			fill: none; fill-opacity: 0.75; fill-rule: evenodd;
			stroke: black; stroke-width: 1px; stroke-linecap: butt; stroke-linejoin: miter; stroke-opacity: 0.1;
		}
		path.rule[id*=&quot;V&quot;]
		{
			stroke-opacity: 0;
			}
		path#ruleH1, path#ruleV12
		{
			stroke-opacity: 0.8;
		}
		defs marker
		{
			overflow: visible;
		}
	</style>
  <!-- table rules -->
  <!-- glyphs -->
  <!-- -A -->
  <!-- -I -->
  <!-- -U -->
  <!-- -E -->
  <g
     id="gKE"
     transform="translate(-602.54483,-296.26035)">
    <path
       id="path2181"
       d="m 611.0336,333.06924 c 4.21873,-1.03124 7.49998,-2.46874 9.84375,-4.3125 2.34373,-1.84374 4.0156,-4.24998 5.01562,-7.21874 0.99998,-2.96874 1.53123,-6.15624 1.59376,-9.5625 h -11.4375 c -2.81252,4.81251 -5.82814,8.92188 -9.04688,12.32812 -0.81251,-1.15624 -1.93751,-2.26561 -3.375,-3.32812 v -0.42188 c 2.62499,-1.96873 5.07812,-4.76561 7.35938,-8.39062 2.28123,-3.65623 3.68748,-6.68748 4.21874,-9.09376 0.53124,-2.40621 0.67186,-3.81246 0.42188,-4.21874 0.0312,-0.53122 0.31248,-0.70309 0.84375,-0.51563 l 4.3125,0.75 c 0.49998,0.12504 0.56248,0.35941 0.1875,0.70313 l -0.70313,0.75 c -0.56252,2.56253 -1.31251,4.9844 -2.25,7.26562 h 24.32813 v 4.17188 h -10.45313 c -0.0625,3.56251 -0.57815,6.92189 -1.54687,10.07812 -0.96878,3.15626 -2.62503,5.98438 -4.96875,8.48438 -2.34377,2.5 -6.28127,4.81249 -11.8125,6.9375 -0.56251,-1.43751 -1.40626,-2.79688 -2.53125,-4.07813 v -0.32813" />
    <path
       id="path72200"
       d="m 612.09137,298.24365 c -0.99366,5.29949 -6.07234,11.77665 -8.68528,15.30965"
       class="stroke" />
    <text
       x="602.61993"
       y="304.3942"
       class="number"
       id="text3934"
       style="line-height:0%">1</text>
    <path
       id="path73121"
       d="m 623.4264,304.72081 15.30964,0.14721"
       class="stroke" />
    <text
       x="625.63147"
       y="302.19785"
       class="number"
       id="text3937"
       style="line-height:0%">2</text>
    <path
       id="path74042"
       d="m 634.33581,315.98137 c 0.20818,7.41655 -1.76956,10.27908 -6.03733,16.03015"
       class="stroke" />
    <text
       x="635.57294"
       y="325.29675"
       class="number"
       id="text3940"
       style="line-height:0%">3</text>
  </g>
  <!-- -O -->
  <!-- column headers -->
  <!-- row headers -->
</svg>
