<?xml version="1.0" encoding="UTF-8" standalone="no"?>
<svg
   version="1.0"
   width="49.543484"
   height="46.341171"
   id="svg2"
   sodipodi:version="0.32"
   inkscape:version="0.48.0 r9654"
   sodipodi:docname="Table_katakana-ru.svg"
   inkscape:export-batch-name=""
   xmlns:inkscape="http://www.inkscape.org/namespaces/inkscape"
   xmlns:sodipodi="http://sodipodi.sourceforge.net/DTD/sodipodi-0.dtd"
   xmlns="http://www.w3.org/2000/svg"
   xmlns:svg="http://www.w3.org/2000/svg"
   xmlns:rdf="http://www.w3.org/1999/02/22-rdf-syntax-ns#"
   xmlns:cc="http://creativecommons.org/ns#"
   xmlns:dc="http://purl.org/dc/elements/1.1/">
  <metadata
     id="metadataKatakana">
    <rdf:RDF>
      <cc:Work
         rdf:about="">
        <dc:format>image/svg+xml</dc:format>
        <dc:type
           rdf:resource="http://purl.org/dc/dcmitype/StillImage" />
      </cc:Work>
    </rdf:RDF>
  </metadata>
  <sodipodi:namedview
     inkscape:window-height="1031"
     inkscape:window-width="1920"
     inkscape:pageshadow="2"
     inkscape:pageopacity="0.0"
     guidetolerance="10.0"
     gridtolerance="10.0"
     objecttolerance="10.0"
     borderopacity="1.0"
     bordercolor="#666666"
     pagecolor="#ffffff"
     id="base"
     inkscape:zoom="1.2008624"
     inkscape:cx="341.14809"
     inkscape:cy="169.85181"
     inkscape:window-x="0"
     inkscape:window-y="0"
     inkscape:current-layer="svg2"
     showguides="true"
     inkscape:guide-bbox="true"
     showgrid="false"
     inkscape:window-maximized="1"
     inkscape:showpageshadow="2"
     inkscape:pagecheckerboard="0"
     inkscape:deskcolor="#d1d1d1">
    <inkscape:page
       x="0"
       y="0"
       width="49.543484"
       height="46.341171"
       id="page1"
       margin="0"
       bleed="0" />
  </sodipodi:namedview>
  <!-- arrow ends -->
  <defs
     id="defsKatakana">
    <marker
       refX="0"
       refY="0"
       orient="auto"
       style="overflow:visible"
       id="Arrow1Mend">
      <path
         d="M 0,0 5,-5 -12.5,0 5,5 Z"
         transform="matrix(-0.4,0,0,-0.4,-4,0)"
         class="arrow"
         id="path3362"
         style="stroke:#0000ff" />
    </marker>
  </defs>
  <style
     type="text/css"
     id="style3544">
		path.stroke /* arrow lines */
		{
			fill: none; fill-opacity: 0.75; fill-rule: evenodd;
			stroke: blue; stroke-width: 1px; stroke-linecap: butt; stroke-linejoin: miter; stroke-opacity:1;
			marker-end: url(#Arrow1Mend);
		}
		path.arrow /* heads */
		{
			font-size: 12px;
			fill-rule: evenodd;
			fill: blue;
			stroke: blue; stroke-width: 1pt;/*0.625*/ stroke-linejoin: round;
			marker-start: none;
		}
		text.number
		{
			font-size: 8px;
			fill: blue;
		}
		text.label
		{
			font-size: 22px;
		}
		text.cell
		{
			font-style: italic;
			text-transform: lowercase;
			fill: gray;
/*			display: none;*/
		}
		path.old
		{
			fill: gray;
		}
		path.rule
		{
			fill: none; fill-opacity: 0.75; fill-rule: evenodd;
			stroke: black; stroke-width: 1px; stroke-linecap: butt; stroke-linejoin: miter; stroke-opacity: 0.1;
		}
		path.rule[id*=&quot;V&quot;]
		{
			stroke-opacity: 0;
			}
		path#ruleH1, path#ruleV12
		{
			stroke-opacity: 0.8;
		}
		defs marker
		{
			overflow: visible;
		}
	</style>
  <!-- table rules -->
  <!-- glyphs -->
  <!-- -A -->
  <g
     id="gRA"
     transform="translate(-150.44351,-50.4039)">
    <path
       id="path2093"
       d="m 165.30348,58.526321 v 4.09375 h 22.40625 v -4.09375 z m 25.46875,9.84375 c -0.0703,0 -0.12502,0.01563 -0.1875,0.09375 l -0.15625,0.15625 h -30.40625 v 3.96875 h 28.40625 c -0.0938,1.96877 -0.62504,4.03129 -1.59375,6.15625 -0.96878,2.09376 -2.34379,4.00004 -4.09375,5.75 -1.71878,1.71875 -4.00003,3.25003 -6.875,4.5625 -2.87501,1.28125 -6.87503,2.09378 -11.96875,2.46875 v 0.34375 c 0.68749,1.6875 1.12498,3.31252 1.3125,4.875 6.24998,-1.375 10.87497,-2.84373 13.875,-4.40625 2.99997,-1.59375 5.56246,-3.56247 7.65625,-5.90625 2.09372,-2.34374 3.62495,-4.62497 4.625,-6.84375 0.99996,-2.24998 1.62495,-4.40624 1.875,-6.46875 l 0.8125,-0.71875 c 0.49996,-0.40622 0.49995,-0.87498 0.0312,-1.40625 -1.25004,-1.06248 -2.2813,-1.90623 -3.09375,-2.53125 -0.0781,-0.07811 -0.14844,-0.09375 -0.21875,-0.09375 z" />
    <path
       id="path5907"
       d="m 165.50606,54.918984 h 16.44651"
       class="stroke" />
    <text
       x="159.5204"
       y="56.239838"
       class="number"
       id="text3587"
       style="line-height:0%">1</text>
    <path
       id="path6828"
       d="m 155.01014,65.507613 h 15.01523"
       class="stroke" />
    <text
       x="149.81461"
       y="67.589211"
       class="number"
       id="text3590"
       style="line-height:0%">2</text>
    <path
       id="path7749"
       d="m 187.98477,65.507613 c 0,0 6.88199,-1.324873 9.12691,1.324873 2.24493,2.649746 -0.26655,8.699123 -1.18813,11.460041"
       class="stroke" />
  </g>
  <!-- -I -->
  <!-- -U -->
  <!-- -E -->
  <!-- -O -->
  <!-- column headers -->
  <!-- row headers -->
</svg>
