<?xml version="1.0" encoding="UTF-8" standalone="no"?>
<svg
   version="1.0"
   width="42.205421"
   height="41.688404"
   id="svg2"
   sodipodi:version="0.32"
   inkscape:version="0.48.0 r9654"
   sodipodi:docname="Table_katakana-ru.svg"
   inkscape:export-batch-name=""
   xmlns:inkscape="http://www.inkscape.org/namespaces/inkscape"
   xmlns:sodipodi="http://sodipodi.sourceforge.net/DTD/sodipodi-0.dtd"
   xmlns="http://www.w3.org/2000/svg"
   xmlns:svg="http://www.w3.org/2000/svg"
   xmlns:rdf="http://www.w3.org/1999/02/22-rdf-syntax-ns#"
   xmlns:cc="http://creativecommons.org/ns#"
   xmlns:dc="http://purl.org/dc/elements/1.1/">
  <metadata
     id="metadataKatakana">
    <rdf:RDF>
      <cc:Work
         rdf:about="">
        <dc:format>image/svg+xml</dc:format>
        <dc:type
           rdf:resource="http://purl.org/dc/dcmitype/StillImage" />
      </cc:Work>
    </rdf:RDF>
  </metadata>
  <sodipodi:namedview
     inkscape:window-height="1031"
     inkscape:window-width="1920"
     inkscape:pageshadow="2"
     inkscape:pageopacity="0.0"
     guidetolerance="10.0"
     gridtolerance="10.0"
     objecttolerance="10.0"
     borderopacity="1.0"
     bordercolor="#666666"
     pagecolor="#ffffff"
     id="base"
     inkscape:zoom="1.2008624"
     inkscape:cx="341.14809"
     inkscape:cy="169.85181"
     inkscape:window-x="0"
     inkscape:window-y="0"
     inkscape:current-layer="svg2"
     showguides="true"
     inkscape:guide-bbox="true"
     showgrid="false"
     inkscape:window-maximized="1"
     inkscape:showpageshadow="2"
     inkscape:pagecheckerboard="0"
     inkscape:deskcolor="#d1d1d1">
    <inkscape:page
       x="0"
       y="0"
       width="42.205421"
       height="41.688404"
       id="page1"
       margin="0"
       bleed="0" />
  </sodipodi:namedview>
  <!-- arrow ends -->
  <defs
     id="defsKatakana">
    <marker
       refX="0"
       refY="0"
       orient="auto"
       style="overflow:visible"
       id="Arrow1Mend">
      <path
         d="M 0,0 5,-5 -12.5,0 5,5 Z"
         transform="matrix(-0.4,0,0,-0.4,-4,0)"
         class="arrow"
         id="path3362"
         style="stroke:#0000ff" />
    </marker>
  </defs>
  <style
     type="text/css"
     id="style3544">
		path.stroke /* arrow lines */
		{
			fill: none; fill-opacity: 0.75; fill-rule: evenodd;
			stroke: blue; stroke-width: 1px; stroke-linecap: butt; stroke-linejoin: miter; stroke-opacity:1;
			marker-end: url(#Arrow1Mend);
		}
		path.arrow /* heads */
		{
			font-size: 12px;
			fill-rule: evenodd;
			fill: blue;
			stroke: blue; stroke-width: 1pt;/*0.625*/ stroke-linejoin: round;
			marker-start: none;
		}
		text.number
		{
			font-size: 8px;
			fill: blue;
		}
		text.label
		{
			font-size: 22px;
		}
		text.cell
		{
			font-style: italic;
			text-transform: lowercase;
			fill: gray;
/*			display: none;*/
		}
		path.old
		{
			fill: gray;
		}
		path.rule
		{
			fill: none; fill-opacity: 0.75; fill-rule: evenodd;
			stroke: black; stroke-width: 1px; stroke-linecap: butt; stroke-linejoin: miter; stroke-opacity: 0.1;
		}
		path.rule[id*=&quot;V&quot;]
		{
			stroke-opacity: 0;
			}
		path#ruleH1, path#ruleV12
		{
			stroke-opacity: 0.8;
		}
		defs marker
		{
			overflow: visible;
		}
	</style>
  <!-- table rules -->
  <!-- glyphs -->
  <!-- -A -->
  <!-- -I -->
  <!-- -U -->
  <!-- -E -->
  <!-- -O -->
  <g
     id="gSO"
     transform="translate(-544.67153,-376.22018)">
    <path
       id="path2165"
       d="m 572.51523,382.37734 c -0.3515,0.0117 -0.5546,0.22659 -0.625,0.625 0.25,0.37503 0.2187,1.81254 -0.125,4.3125 -0.3437,2.50003 -1.1875,5.65628 -2.5312,9.5 -1.3438,3.81252 -3.8438,7.25002 -7.5,10.28125 -3.6251,3.00001 -7.875,5.06251 -12.75,6.1875 v 0.375 c 1,1.28125 1.7188,2.68749 2.1562,4.25 6.4688,-2.53125 11.4375,-5.43749 14.9376,-8.75 3.5,-3.31249 6.0311,-7.09374 7.5624,-11.3125 1.5626,-4.21873 2.6563,-8.56247 3.3126,-13.03125 l 0.7187,-0.78125 c 0.3749,-0.37497 0.3437,-0.65622 -0.0937,-0.8125 l -4.6563,-0.78125 c -0.1484,-0.0391 -0.2891,-0.0664 -0.4063,-0.0625 z m -24.375,1.65625 -3.4687,2.65625 c 2.8437,3.15628 5.125,6.46878 6.875,9.9375 1.5625,-1.28122 2.9687,-2.28122 4.1875,-3 -2.2813,-3.34372 -4.8124,-6.53121 -7.5938,-9.59375 z" />
    <path
       id="path108113"
       d="m 550.64595,381.45516 7.49461,9.47235"
       class="stroke" />
    <path
       id="path109030"
       d="m 581.35305,384.682 c 0.41637,7.28643 -5.12653,16.8889 -7.49462,21.44292"
       class="stroke" />
    <text
       x="553.37299"
       y="382.05612"
       class="number"
       id="text4035"
       style="line-height:0%">1</text>
    <text
       x="582.31055"
       y="396.94125"
       class="number"
       id="text4037"
       style="line-height:0%">2</text>
  </g>
  <!-- column headers -->
  <!-- row headers -->
</svg>
