<?xml version="1.0" encoding="UTF-8" standalone="no"?>
<svg
   version="1.0"
   width="41.015629"
   height="39.953224"
   id="svg2"
   sodipodi:version="0.32"
   inkscape:version="0.48.0 r9654"
   sodipodi:docname="Table_katakana-ru.svg"
   inkscape:export-batch-name=""
   xmlns:inkscape="http://www.inkscape.org/namespaces/inkscape"
   xmlns:sodipodi="http://sodipodi.sourceforge.net/DTD/sodipodi-0.dtd"
   xmlns="http://www.w3.org/2000/svg"
   xmlns:svg="http://www.w3.org/2000/svg"
   xmlns:rdf="http://www.w3.org/1999/02/22-rdf-syntax-ns#"
   xmlns:cc="http://creativecommons.org/ns#"
   xmlns:dc="http://purl.org/dc/elements/1.1/">
  <metadata
     id="metadataKatakana">
    <rdf:RDF>
      <cc:Work
         rdf:about="">
        <dc:format>image/svg+xml</dc:format>
        <dc:type
           rdf:resource="http://purl.org/dc/dcmitype/StillImage" />
      </cc:Work>
    </rdf:RDF>
  </metadata>
  <sodipodi:namedview
     inkscape:window-height="1031"
     inkscape:window-width="1920"
     inkscape:pageshadow="2"
     inkscape:pageopacity="0.0"
     guidetolerance="10.0"
     gridtolerance="10.0"
     objecttolerance="10.0"
     borderopacity="1.0"
     bordercolor="#666666"
     pagecolor="#ffffff"
     id="base"
     inkscape:zoom="1.2008624"
     inkscape:cx="341.14809"
     inkscape:cy="169.85181"
     inkscape:window-x="0"
     inkscape:window-y="0"
     inkscape:current-layer="svg2"
     showguides="true"
     inkscape:guide-bbox="true"
     showgrid="false"
     inkscape:window-maximized="1"
     inkscape:showpageshadow="2"
     inkscape:pagecheckerboard="0"
     inkscape:deskcolor="#d1d1d1">
    <inkscape:page
       x="0"
       y="0"
       width="41.015629"
       height="39.953224"
       id="page1"
       margin="0"
       bleed="0" />
  </sodipodi:namedview>
  <!-- arrow ends -->
  <defs
     id="defsKatakana">
    <marker
       refX="0"
       refY="0"
       orient="auto"
       style="overflow:visible"
       id="Arrow1Mend">
      <path
         d="M 0,0 5,-5 -12.5,0 5,5 Z"
         transform="matrix(-0.4,0,0,-0.4,-4,0)"
         class="arrow"
         id="path3362"
         style="stroke:#0000ff" />
    </marker>
  </defs>
  <style
     type="text/css"
     id="style3544">
		path.stroke /* arrow lines */
		{
			fill: none; fill-opacity: 0.75; fill-rule: evenodd;
			stroke: blue; stroke-width: 1px; stroke-linecap: butt; stroke-linejoin: miter; stroke-opacity:1;
			marker-end: url(#Arrow1Mend);
		}
		path.arrow /* heads */
		{
			font-size: 12px;
			fill-rule: evenodd;
			fill: blue;
			stroke: blue; stroke-width: 1pt;/*0.625*/ stroke-linejoin: round;
			marker-start: none;
		}
		text.number
		{
			font-size: 8px;
			fill: blue;
		}
		text.label
		{
			font-size: 22px;
		}
		text.cell
		{
			font-style: italic;
			text-transform: lowercase;
			fill: gray;
/*			display: none;*/
		}
		path.old
		{
			fill: gray;
		}
		path.rule
		{
			fill: none; fill-opacity: 0.75; fill-rule: evenodd;
			stroke: black; stroke-width: 1px; stroke-linecap: butt; stroke-linejoin: miter; stroke-opacity: 0.1;
		}
		path.rule[id*=&quot;V&quot;]
		{
			stroke-opacity: 0;
			}
		path#ruleH1, path#ruleV12
		{
			stroke-opacity: 0.8;
		}
		defs marker
		{
			overflow: visible;
		}
	</style>
  <!-- table rules -->
  <!-- glyphs -->
  <!-- -A -->
  <!-- -I -->
  <!-- -U -->
  <g
     id="gSU"
     transform="translate(-540.23692,-215.95116)">
    <path
       id="path2169"
       d="m 545.86192,223.37313 c 7.40624,0.12503 14.98436,-0.0625 22.73438,-0.5625 l 0.28125,-0.23437 c 0.12497,-0.15622 0.26559,-0.15622 0.42187,0 1.31247,1.00003 2.51559,1.89065 3.60938,2.67187 0.53121,0.43753 0.46871,0.87503 -0.1875,1.3125 l -0.98438,0.65625 c -1.06253,2.93752 -2.1094,5.25002 -3.14062,6.9375 -1.03128,1.65627 -1.87503,2.92189 -2.53125,3.79688 3.74997,2.78126 6.65621,5.14063 8.71875,7.07812 2.09371,1.90626 4.24996,3.81251 6.46875,5.71875 V 251.17 c -1.31254,1.03126 -2.56254,2.32813 -3.75,3.89063 -2.34379,-3 -4.53129,-5.5 -6.5625,-7.5 -2.00003,-2.03124 -4.4844,-4.18749 -7.45313,-6.46875 -0.65627,0.68751 -1.81252,1.85939 -3.46874,3.51562 -1.65628,1.65626 -3.93752,3.43751 -6.84376,5.34376 -2.87501,1.875 -6.5,3.85937 -10.875,5.95312 -0.46875,-1.71875 -1.15625,-3.21875 -2.0625,-4.5 v -0.51562 c 3.53125,-1.15625 6.65624,-2.48437 9.375,-3.98438 2.74999,-1.49999 5.37499,-3.40624 7.875,-5.71875 2.53123,-2.34373 4.53123,-4.64061 6,-6.89063 1.49998,-2.24997 2.7031,-4.73435 3.60938,-7.45312 l -20.48438,1.17188 c -0.0625,-1.56248 -0.35938,-2.96873 -0.89062,-4.21876 l 0.14062,-0.42187" />
    <path
       id="path62988"
       d="m 556.79903,219.19163 c 0,0 15.08865,-1.90433 18.51123,0.92943 3.42259,2.83375 -0.51893,10.61467 -1.90631,14.15289"
       class="stroke" />
    <text
       x="551.29657"
       y="221.78709"
       class="number"
       id="text3834"
       style="line-height:0%">1</text>
    <path
       id="path63909"
       d="m 563.24106,245.09482 8.11917,8.63962"
       class="stroke" />
    <text
       x="558.89526"
       y="253.01463"
       class="number"
       id="text3837"
       style="line-height:0%">2</text>
  </g>
  <!-- -E -->
  <!-- -O -->
  <!-- column headers -->
  <!-- row headers -->
</svg>
